<svg xmlns="http://www.w3.org/2000/svg" id="Layer_1" data-name="Layer 1" viewBox="0 0 992 992"><defs><style>.cls-1{fill:#fff}</style></defs><path d="M496,0C222.07,0,0,222.07,0,496s222.07,496,496,496,496-222.07,496-496S769.93,0,496,0Zm375.51,630.24c-24.29,29.74-55.88,55.47-92.61,68.68-34.16,12.28-72.77,11.08-108.35,7.53v-125.22c0-12.48-.48-25.17,.08-37.59,1.76,1.26,3.82,2.55,5.94,3.38,30.18,11.84,66.48,7.2,81.23-25.02,9.25-20.21,4.96-45.52-9.7-62.07-20.01-22.59-58.4-25.85-81.07-5.92-11.4,10.02-17.27,24.37-19.53,39.1v357.49h-153.12V460.85c0-17.9,.45-35.8,.59-53.71,.14-18.12,4.03-42.31-17.11-50.69-19.61-7.78-32.16,16.8-32.16,32.86v227.76h-152.8v-200.82c0-13.97,3.08-30.17-2.94-43.28-4.58-9.97-16.86-18.47-28.31-15.78-13.53,3.18-17.84,20.19-18.76,32.15-.39,5.14-.35,10.37-.35,15.56v215.05H91.07v-204.27c0-36.17-1.68-70.58,11.96-104.78,12.3-30.84,32.74-58.23,60.11-77.27,45.48-31.64,110.2-31.19,157.56-5.02,17.49,9.67,33.28,22.41,47.16,36.74,37.3-42.81,95.33-63.53,151.32-56.09,45.8,6.08,84.38,43.77,107.73,81.48,1.92,3.1,3.88,6.37,6.97,8.3,6.88,4.29,21.08-3.54,28.46-4.94,7.36-1.39,14.92-3.46,22.39-4.1,38.4-3.27,77.83,2,112.82,18.66,50.69,24.13,85.24,67.08,106.5,118.12,17.78,42.67,15.14,90.6,1.65,134.01-7.57,24.36-17.99,49.56-34.21,69.43Z" class="cls-1"/></svg>